<svg width="20" height="19" viewBox="0 0 20 19" fill="none" xmlns="http://www.w3.org/2000/svg" class="_wauiIcon__connectivity _ag3z"><path d="M9.99664 7.99726C8.89664 7.99726 7.99664 8.89726 7.99664 9.99726C7.99664 11.0973 8.89664 11.9973 9.99664 11.9973C11.0966 11.9973 11.9966 11.0973 11.9966 9.99726C11.9966 8.89726 11.0966 7.99726 9.99664 7.99726ZM15.9966 9.99726C15.9966 6.43726 12.8866 3.59726 9.24664 4.04726C6.62664 4.36726 4.46664 6.45726 4.06664 9.06726C3.73664 11.2173 4.55664 13.1773 5.99664 14.4673C6.47664 14.8973 7.22664 14.7973 7.55664 14.2373L7.56664 14.2273C7.80664 13.8073 7.70664 13.2973 7.34664 12.9673C6.31664 12.0373 5.75664 10.5973 6.12664 9.02726C6.45664 7.60726 7.60664 6.45726 9.02664 6.11726C11.6466 5.48726 13.9966 7.46726 13.9966 9.99726C13.9966 11.1773 13.4766 12.2273 12.6666 12.9573C12.3066 13.2773 12.1966 13.7973 12.4366 14.2173L12.4466 14.2273C12.7566 14.7573 13.4766 14.9173 13.9466 14.5073C15.1966 13.4073 15.9966 11.7973 15.9966 9.99726ZM8.82664 0.0672633C4.20664 0.587263 0.476636 4.39726 0.0466361 9.02726C-0.303364 12.7273 1.36664 16.0473 4.06664 18.0373C4.54664 18.3873 5.22664 18.2373 5.52664 17.7273C5.77664 17.2973 5.66664 16.7373 5.26664 16.4373C2.98664 14.7473 1.61664 11.8873 2.10664 8.73726C2.64664 5.23726 5.56664 2.44726 9.08664 2.05726C13.9066 1.50726 17.9966 5.27726 17.9966 9.99726C17.9966 12.6473 16.7066 14.9773 14.7266 16.4373C14.3266 16.7373 14.2166 17.2873 14.4666 17.7273C14.7666 18.2473 15.4466 18.3873 15.9266 18.0373C18.3966 16.2173 19.9966 13.2973 19.9966 9.99726C19.9966 4.08726 14.8666 -0.622737 8.82664 0.0672633Z" fill="currentColor"/></svg>