<svg xmlns="http://www.w3.org/2000/svg" width="19" height="16" fill="none"
    class="prefix___aghm prefix___adid prefix___afbl">
    <path
        d="M18.309 2.198a7.195 7.195 0 01-1.788.474c-.01-.01-.019-.01-.028-.02A3.793 3.793 0 0018.082.584c-.029.02-.038.02-.057.03-.7.415-1.447.705-2.242.879-.047.01-.075 0-.104-.039-.851-.86-1.882-1.246-3.074-1.12a3.453 3.453 0 00-2.071.956c-1.022.976-1.4 2.184-1.145 3.594.01.058.01.078-.057.078A10.267 10.267 0 018 4.797 9.942 9.942 0 015.34 3.9 10.514 10.514 0 012 1.289a6.689 6.689 0 01-.226-.27c-.284.445-.54 1.208-.501 2.02.056 1.285.614 2.28 1.626 3.024a3.607 3.607 0 01-1.664-.473c0 .908.265 1.72.823 2.415.558.706 1.267 1.14 2.147 1.344-.029.01-.048.019-.066.019a3.678 3.678 0 01-1.523.058c-.076-.01-.076-.01-.048.067.114.339.265.648.464.938.596.85 1.39 1.372 2.393 1.555.18.04.369.049.577.058C4.376 13.31 2.56 13.822.545 13.62c.01.01.02.02.038.03.738.473 1.523.85 2.346 1.13.917.31 1.854.483 2.818.522a11.3 11.3 0 003.17-.32c1.882-.482 3.49-1.439 4.833-2.869a11.152 11.152 0 002.412-4.078 10.804 10.804 0 00.567-3.903c0-.058.019-.087.057-.126a7.59 7.59 0 001.721-1.817c.01-.019.038-.038.038-.077a6.52 6.52 0 00-.236.087z"
        fill="white" />
</svg>