<svg width="23" height="16" fill="none" xmlns="http://www.w3.org/2000/svg" class="prefix___wauiIcon__youtube prefix___adid prefix___afbl"><path d="M22.009 5.952a8.5 8.5 0 00-.91-4.13 2.92 2.92 0 00-1.72-1 78.36 78.36 0 00-8.37-.31 78.45 78.45 0 00-8.34.3 2.87 2.87 0 00-1.46.74c-.9.83-1 2.25-1.1 3.45a48.29 48.29 0 000 6.48 9.55 9.55 0 00.3 2c.12.505.364.972.71 1.36a2.86 2.86 0 001.49.78c2.156.266 4.328.376 6.5.33 3.5.05 6.57 0 10.2-.28a2.88 2.88 0 001.53-.78c.28-.28.489-.623.61-1a10.58 10.58 0 00.52-3.4c.04-.56.04-3.94.04-4.54zm-13.26 5.14v-6.19l5.92 3.11c-1.66.92-3.85 1.96-5.92 3.08z" fill="white"/></svg>